# xmcd
#
# Track frame offsets: 
#        150
#        20797
#        41206
#        64249
#        83634
#        108786
#        134370
#        156453
#        182718
#        200190
#        221501
#        246724
#
# Disc length: 3544 seconds
#
# Revision: 0
# Processed by: cddbd v1.5.2PL0 Copyright (c) Steve Scherf et al.
# Submitted via: ExactAudioCopy v1.0b3
#
DISCID=ba0dd60c
DTITLE=Various Artist - Duong Vao Tinh Su
DYEAR=1900
DGENRE=
TTITLE0=Tuan Vu - Dung hoi tai sao
TTITLE1=Thien Trang - Cho nguoi vao cuoc chien
TTITLE2=Duy Quang - Chuyen tinh khong suy tu
TTITLE3=Truc Mai - Chuyen tau tien biet
TTITLE4=Tuan Vu - Duong vao tinh su
TTITLE5=Thien Trang - Ngay mai neu em lay chong
TTITLE6=Truc Mai - Dinh menh trong tinh yeu
TTITLE7=Duy Quang - Mua thu Paris
TTITLE8=Thien Trang - Em ve voi nguoi
TTITLE9=Tuan Vu - Dem ve tuong nho
TTITLE10=Mai Ngoc Khanh - Chuyen tau tien biet
TTITLE11=Thien Trang - Mua nua dem
EXTD=
EXTT0=
EXTT1=
EXTT2=
EXTT3=
EXTT4=
EXTT5=
EXTT6=
EXTT7=
EXTT8=
EXTT9=
EXTT10=
EXTT11=
PLAYORDER=
